<svg viewBox="0 0 423 336" fill="none" xmlns="http://www.w3.org/2000/svg"
  xmlns:xlink="http://www.w3.org/1999/xlink">
  <g clip-path="url(#clip0_2001_2)">
    <rect x="15.931" y="164" width="206" height="145" rx="6" transform="rotate(3.53125 15.931 164)"
      fill="url(#pattern0_2001_2)" />
    <rect x="201.962" y="180.09" width="199.565" height="150.174" rx="7"
      transform="rotate(-2.22012 201.962 180.09)" fill="url(#pattern1_2001_2)" stroke="white"
      stroke-width="2" />
    <rect x="190.508" y="37.9051" width="201.373" height="146.227" rx="7"
      transform="rotate(5.73143 190.508 37.9051)" fill="url(#pattern2_2001_2)" stroke="white"
      stroke-width="2" />
    <rect x="4.79443" y="54.7495" width="210" height="158" rx="7"
      transform="rotate(-13.4808 4.79443 54.7495)" fill="url(#pattern3_2001_2)" stroke="white"
      stroke-width="2" />
    <rect x="41.4311" y="17.9943" width="135.795" height="36.5066" rx="5"
      transform="rotate(2.45931 41.4311 17.9943)" fill="#3E9274" />
    <rect x="41.4311" y="17.9943" width="135.795" height="36.5066" rx="5"
      transform="rotate(2.45931 41.4311 17.9943)" stroke="white" stroke-width="2" />
    <path
      d="M157.825 50.1131C157.135 50.0835 156.516 49.9289 155.969 49.6495C155.422 49.3654 154.995 48.9703 154.69 48.4643C154.39 47.9585 154.255 47.3485 154.285 46.6342C154.312 46.0192 154.452 45.5181 154.705 45.1309C154.959 44.7437 155.292 44.4429 155.704 44.2283C156.116 44.0138 156.573 43.8581 157.075 43.7612C157.576 43.6642 158.086 43.5961 158.605 43.5567C159.261 43.5091 159.793 43.4703 160.202 43.4405C160.611 43.4059 160.91 43.3359 161.1 43.2303C161.289 43.1246 161.389 42.9441 161.4 42.6887L161.402 42.639C161.429 42.0193 161.274 41.5316 160.939 41.176C160.608 40.8206 160.1 40.6281 159.414 40.5987C158.7 40.568 158.13 40.7023 157.705 41.0016C157.285 41.2963 156.988 41.6319 156.816 42.0084L154.841 41.4686C155.106 40.8165 155.475 40.2968 155.946 39.9095C156.423 39.5176 156.963 39.2423 157.567 39.0834C158.171 38.9197 158.802 38.8521 159.46 38.8803C159.895 38.899 160.354 38.9708 160.836 39.0958C161.324 39.2163 161.775 39.4205 162.189 39.7084C162.608 39.9965 162.944 40.3972 163.197 40.9104C163.45 41.4189 163.559 42.0705 163.525 42.8652L163.214 50.1029L161.142 50.0139L161.206 48.5238L161.121 48.5201C160.972 48.7886 160.755 49.0494 160.469 49.3025C160.183 49.5557 159.822 49.7605 159.384 49.917C158.946 50.0736 158.426 50.1389 157.825 50.1131ZM158.36 48.43C158.946 48.4552 159.453 48.3608 159.879 48.1469C160.31 47.9332 160.642 47.6441 160.876 47.2798C161.115 46.9109 161.243 46.5112 161.262 46.0807L161.322 44.6758C161.243 44.7482 161.093 44.8129 160.873 44.8698C160.657 44.9221 160.411 44.966 160.135 45.0016C159.859 45.0324 159.59 45.0611 159.328 45.0878C159.066 45.1097 158.848 45.1287 158.672 45.1449C158.258 45.1792 157.878 45.2506 157.532 45.359C157.191 45.4675 156.914 45.6333 156.7 45.8564C156.492 46.0749 156.379 46.3734 156.363 46.7518C156.341 47.2769 156.518 47.6826 156.894 47.9689C157.27 48.2505 157.759 48.4042 158.36 48.43Z"
      fill="white" />
    <path
      d="M148.024 49.6709C146.95 49.6247 146.035 49.3556 145.279 48.8634C144.528 48.3667 143.96 47.6907 143.575 46.8353C143.195 45.9754 143.029 44.9801 143.078 43.8496C143.126 42.7332 143.376 41.7582 143.829 40.9246C144.286 40.0911 144.902 39.4517 145.674 39.0062C146.452 38.561 147.346 38.3601 148.359 38.4035C148.974 38.43 149.565 38.5573 150.134 38.7855C150.702 39.0137 151.206 39.3552 151.647 39.8101C152.087 40.265 152.424 40.8459 152.659 41.5526C152.895 42.2547 152.991 43.1 152.949 44.0887L152.916 44.8408L144.252 44.4687L144.321 42.8793L150.906 43.1621C150.929 42.6039 150.837 42.1047 150.629 41.6645C150.42 41.2195 150.116 40.8628 149.715 40.5944C149.319 40.3262 148.846 40.1804 148.298 40.1568C147.702 40.1312 147.175 40.2555 146.718 40.5297C146.265 40.7993 145.909 41.1632 145.647 41.6211C145.391 42.0745 145.251 42.5733 145.227 43.1173L145.174 44.359C145.143 45.0875 145.244 45.7127 145.477 46.2346C145.716 46.7566 146.061 47.1624 146.513 47.452C146.965 47.7368 147.501 47.8925 148.121 47.9191C148.523 47.9364 148.892 47.8954 149.228 47.7961C149.564 47.692 149.858 47.5293 150.109 47.3079C150.36 47.0864 150.557 46.8082 150.699 46.4731L152.692 46.9212C152.506 47.5056 152.195 48.0112 151.759 48.438C151.329 48.8602 150.796 49.1809 150.161 49.4001C149.531 49.6147 148.819 49.705 148.024 49.6709Z"
      fill="white" />
    <path
      d="M141.974 38.2715L141.901 39.9745L135.948 39.7188L136.021 38.0158L141.974 38.2715ZM137.729 35.4731L139.851 35.5643L139.408 45.8744C139.391 46.2859 139.439 46.5984 139.553 46.8118C139.667 47.0205 139.82 47.1669 140.01 47.2509C140.206 47.3304 140.42 47.3751 140.651 47.3851C140.822 47.3924 140.971 47.3869 141.1 47.3688C141.229 47.3506 141.329 47.336 141.4 47.3248L141.708 49.0939C141.583 49.1359 141.406 49.1757 141.177 49.2133C140.948 49.2556 140.663 49.2718 140.322 49.2619C139.763 49.2473 139.247 49.1257 138.774 48.8968C138.3 48.6679 137.924 48.3295 137.644 47.8815C137.365 47.4335 137.24 46.8807 137.268 46.2232L137.729 35.4731Z"
      fill="white" />
    <path
      d="M122.917 44.6685L123.014 42.0779L123.383 42.0938L127.924 37.6681L130.464 37.7772L125.286 42.8153L124.952 42.801L122.917 44.6685ZM120.807 48.2815L121.431 33.7495L123.553 33.8406L122.929 48.3727L120.807 48.2815ZM127.69 48.5772L124.01 43.2297L125.535 41.8094L130.294 48.689L127.69 48.5772Z"
      fill="white" />
    <path
      d="M111.664 41.4056L111.386 47.8769L109.264 47.7858L109.733 36.8868L111.769 36.9742L111.693 38.7482L111.828 38.7539C112.103 38.1876 112.516 37.7409 113.065 37.4138C113.62 37.0869 114.306 36.941 115.124 36.9762C115.867 37.0081 116.511 37.1921 117.056 37.5283C117.601 37.8597 118.014 38.3372 118.295 38.9606C118.576 39.5841 118.698 40.3452 118.659 41.244L118.361 48.1765L116.24 48.0854L116.526 41.4083C116.56 40.6183 116.381 39.9921 115.989 39.5298C115.596 39.0627 115.041 38.8137 114.322 38.7829C113.83 38.7617 113.388 38.8494 112.995 39.0458C112.608 39.2424 112.294 39.5417 112.054 39.9437C111.819 40.3412 111.689 40.8285 111.664 41.4056Z"
      fill="white" />
    <path
      d="M104.688 47.5892L105.156 36.6902L107.278 36.7813L106.81 47.6804L104.688 47.5892ZM106.3 35.0545C105.931 35.0387 105.619 34.9021 105.365 34.6447C105.116 34.3828 104.998 34.0792 105.013 33.7339C105.028 33.3838 105.171 33.0914 105.442 32.8566C105.717 32.6172 106.04 32.5055 106.409 32.5213C106.778 32.5372 107.087 32.6761 107.336 32.938C107.591 33.1953 107.71 33.499 107.695 33.8491C107.68 34.1944 107.535 34.4867 107.26 34.7261C106.989 34.9609 106.669 35.0704 106.3 35.0545Z"
      fill="white" />
    <path
      d="M97.4191 47.277L97.8872 36.378L99.9379 36.4661L99.8635 38.1974L99.9771 38.2023C100.201 37.6242 100.571 37.1781 101.087 36.8637C101.607 36.5449 102.187 36.3992 102.826 36.4266C102.958 36.4323 103.114 36.4437 103.293 36.4609C103.478 36.4783 103.621 36.4963 103.725 36.515L103.638 38.5443C103.553 38.517 103.403 38.4845 103.187 38.4468C102.971 38.4043 102.754 38.3784 102.536 38.3691C102.035 38.3475 101.583 38.4348 101.181 38.6308C100.785 38.8223 100.465 39.1 100.221 39.4639C99.9785 39.8232 99.8469 40.2393 99.8266 40.7124L99.5407 47.3681L97.4191 47.277Z"
      fill="white" />
    <path
      d="M88.2733 46.8842L83.5688 46.6822L84.1929 32.1501L89.0464 32.3586C90.4703 32.4197 91.6806 32.7632 92.6774 33.3889C93.6744 34.0099 94.4217 34.8737 94.9191 35.9804C95.4215 37.0825 95.6404 38.3881 95.5755 39.8971C95.5105 41.4109 95.1779 42.6999 94.5777 43.7641C93.9823 44.8285 93.1516 45.6317 92.0857 46.1736C91.02 46.7107 89.7492 46.9476 88.2733 46.8842ZM85.8437 44.8605L88.2349 44.9632C89.3418 45.0107 90.2709 44.8421 91.022 44.4573C91.7733 44.0678 92.3481 43.4835 92.7465 42.7044C93.1451 41.9206 93.3691 40.954 93.4184 39.8045C93.4674 38.6644 93.3268 37.6892 92.9967 36.8788C92.6713 36.0687 92.1603 35.4425 91.4637 35.0002C90.7671 34.558 89.8889 34.3141 88.8293 34.2686L86.3032 34.1601L85.8437 44.8605Z"
      fill="white" />
    <path d="M52.9529 46.7685L72.9345 47.6267L73.7927 27.6452L53.8111 26.787L52.9529 46.7685Z"
      fill="url(#pattern4_2001_2)" />
    <g clip-path="url(#clip1_2001_2)">
      <rect x="237.193" y="24.4353" width="187.5" height="34.5066" rx="4"
        transform="rotate(8.68992 237.193 24.4353)" fill="#BA46D2" />
      <path
        d="M402.829 76.1275C401.766 75.9651 400.886 75.5982 400.188 75.0269C399.495 74.4516 399.003 73.7179 398.713 72.8258C398.429 71.9297 398.372 70.9224 398.543 69.8037C398.712 68.6991 399.067 67.7571 399.607 66.9775C400.153 66.1987 400.833 65.6298 401.65 65.2708C402.471 64.9125 403.382 64.81 404.384 64.963C404.993 65.056 405.567 65.2468 406.107 65.5353C406.647 65.8239 407.112 66.2182 407.5 66.7181C407.888 67.2181 408.161 67.8322 408.318 68.5603C408.475 69.2837 408.479 70.1345 408.33 71.1127L408.216 71.8569L399.644 70.5467L399.884 68.9741L406.399 69.9699C406.484 69.4176 406.446 68.9113 406.287 68.451C406.128 67.9861 405.864 67.5985 405.494 67.2882C405.13 66.9786 404.676 66.7823 404.133 66.6993C403.543 66.6092 403.006 66.6756 402.522 66.8985C402.043 67.1175 401.649 67.4404 401.339 67.8673C401.035 68.2902 400.842 68.7708 400.76 69.3091L400.572 70.5377C400.462 71.2585 400.494 71.891 400.67 72.4351C400.85 72.9799 401.149 73.4208 401.567 73.7577C401.986 74.0899 402.502 74.3029 403.115 74.3966C403.513 74.4574 403.884 74.4567 404.229 74.3944C404.574 74.3275 404.884 74.1976 405.158 74.0047C405.431 73.8119 405.657 73.5566 405.835 73.2389L407.767 73.9006C407.519 74.4614 407.155 74.9303 406.676 75.3073C406.202 75.6803 405.638 75.9413 404.982 76.0903C404.333 76.2353 403.615 76.2477 402.829 76.1275Z"
        fill="white" />
      <path
        d="M398.517 64.2099L398.259 65.8949L392.165 64.9635L392.423 63.2785L398.517 64.2099ZM392.445 74.3178L394.285 62.2842C394.388 61.6102 394.62 61.0734 394.983 60.6739C395.347 60.2696 395.789 59.9947 396.309 59.8491C396.83 59.6988 397.376 59.6673 397.947 59.7546C398.369 59.819 398.724 59.9092 399.013 60.0252C399.302 60.1365 399.515 60.2313 399.652 60.3097L398.9 61.9336C398.806 61.8905 398.685 61.8384 398.536 61.7773C398.388 61.7116 398.204 61.6619 397.984 61.6283C397.474 61.5503 397.09 61.6209 396.831 61.84C396.577 62.0599 396.414 62.4085 396.341 62.8859L394.545 74.6386L392.445 74.3178Z"
        fill="white" />
      <path
        d="M387.208 73.5173L388.857 62.7335L390.956 63.0543L389.308 73.8382L387.208 73.5173ZM390.171 61.2316C389.806 61.1758 389.511 61.0062 389.286 60.7227C389.067 60.4353 388.983 60.1208 389.035 59.7791C389.088 59.4327 389.262 59.1575 389.556 58.9535C389.856 58.7455 390.189 58.6694 390.554 58.7252C390.919 58.781 391.211 58.9526 391.431 59.24C391.656 59.5234 391.742 59.8383 391.689 60.1847C391.637 60.5264 391.461 60.8012 391.161 61.0092C390.866 61.2133 390.536 61.2874 390.171 61.2316Z"
        fill="white" />
      <path d="M386.977 58.7677L384.78 73.1461L382.68 72.8253L384.878 58.4468L386.977 58.7677Z"
        fill="white" />
      <path
        d="M373.316 71.394L374.964 60.6101L377.063 60.931L375.415 71.7148L373.316 71.394ZM376.278 59.1082C375.913 59.0524 375.618 58.8828 375.393 58.5994C375.174 58.3119 375.09 57.9974 375.143 57.6557C375.195 57.3094 375.369 57.0342 375.664 56.8301C375.964 56.6221 376.296 56.546 376.662 56.6018C377.027 56.6576 377.319 56.8292 377.538 57.1166C377.763 57.4001 377.849 57.715 377.796 58.0613C377.744 58.403 377.568 58.6779 377.268 58.8859C376.973 59.0899 376.644 59.164 376.278 59.1082Z"
        fill="white" />
      <path
        d="M364.973 63.5664L363.994 69.9693L361.895 69.6485L363.543 58.8646L365.558 59.1726L365.29 60.9277L365.424 60.9481C365.759 60.415 366.217 60.0157 366.799 59.7502C367.386 59.4854 368.084 59.4149 368.894 59.5386C369.629 59.6509 370.248 59.9038 370.754 60.2971C371.259 60.6857 371.618 61.2052 371.83 61.8555C372.042 62.5058 372.08 63.2756 371.944 64.1649L370.896 71.0241L368.797 70.7033L369.806 64.0968C369.926 63.3151 369.816 62.6732 369.476 62.171C369.136 61.6641 368.611 61.3563 367.9 61.2476C367.413 61.1732 366.964 61.2123 366.553 61.365C366.146 61.5184 365.801 61.7818 365.519 62.1554C365.242 62.525 365.06 62.9954 364.973 63.5664Z"
        fill="white" />
      <path
        d="M358.047 64.4837L359.012 58.172L361.118 58.4939L359.47 69.2778L357.406 68.9623L357.691 67.0948L357.579 67.0776C357.243 67.6154 356.772 68.0344 356.166 68.3345C355.565 68.6306 354.859 68.7168 354.05 68.593C353.357 68.4872 352.767 68.2413 352.28 67.8555C351.798 67.4658 351.451 66.9458 351.24 66.2955C351.032 65.6459 350.997 64.8765 351.133 63.9872L352.181 57.1279L354.28 57.4488L353.27 64.0553C353.158 64.7901 353.272 65.4063 353.613 65.9038C353.954 66.4014 354.449 66.6998 355.1 66.7993C355.493 66.8594 355.899 66.8208 356.317 66.6836C356.741 66.5471 357.111 66.2996 357.429 65.9411C357.752 65.5833 357.958 65.0975 358.047 64.4837Z"
        fill="white" />
      <path
        d="M344.818 58.6969L342.864 58.7431C342.822 58.4876 342.731 58.2366 342.591 57.9901C342.457 57.7444 342.255 57.5291 341.986 57.3444C341.717 57.1596 341.365 57.0339 340.93 56.9674C340.336 56.8766 339.819 56.9341 339.38 57.1401C338.943 57.3414 338.692 57.6503 338.628 58.0669C338.573 58.4273 338.662 58.7379 338.895 58.9986C339.128 59.2594 339.531 59.5054 340.104 59.7367L341.757 60.3917C342.715 60.7727 343.4 61.2391 343.814 61.7909C344.228 62.3427 344.376 63.0001 344.26 63.763C344.161 64.4089 343.886 64.956 343.434 65.4042C342.988 65.8485 342.41 66.1626 341.702 66.3466C340.999 66.5312 340.212 66.557 339.341 66.4239C338.133 66.2394 337.187 65.8314 336.503 65.1999C335.82 64.5638 335.464 63.7551 335.437 62.7738L337.513 62.775C337.559 63.3232 337.757 63.7631 338.109 64.0946C338.462 64.4215 338.954 64.6332 339.586 64.7298C340.274 64.835 340.845 64.7763 341.301 64.5537C341.757 64.3265 342.017 64.0046 342.081 63.588C342.132 63.251 342.049 62.9485 341.831 62.6805C341.618 62.4133 341.263 62.1818 340.766 61.9861L339.002 61.3069C338.031 60.9238 337.343 60.445 336.937 59.8705C336.536 59.2967 336.394 58.626 336.512 57.8584C336.609 57.2218 336.872 56.692 337.301 56.269C337.729 55.846 338.278 55.549 338.946 55.378C339.614 55.2024 340.354 55.1765 341.163 55.3003C342.329 55.4784 343.207 55.8714 343.799 56.4792C344.392 57.0823 344.732 57.8215 344.818 58.6969Z"
        fill="white" />
      <path
        d="M334.614 57.1373L332.66 57.1835C332.618 56.9279 332.527 56.6769 332.387 56.4305C332.252 56.1847 332.051 55.9695 331.782 55.7847C331.513 55.6 331.161 55.4743 330.726 55.4078C330.131 55.3169 329.615 55.3745 329.176 55.5805C328.738 55.7818 328.488 56.0907 328.424 56.5073C328.369 56.8677 328.458 57.1782 328.691 57.439C328.924 57.6998 329.327 57.9458 329.9 58.177L331.553 58.832C332.51 59.213 333.196 59.6794 333.61 60.2313C334.024 60.7831 334.172 61.4404 334.056 62.2033C333.957 62.8493 333.682 63.3963 333.23 63.8446C332.784 64.2889 332.206 64.603 331.498 64.7869C330.794 64.9716 330.007 64.9974 329.137 64.8643C327.929 64.6798 326.983 64.2717 326.299 63.6403C325.616 63.0041 325.26 62.1954 325.233 61.2141L327.309 61.2153C327.355 61.7635 327.553 62.2034 327.905 62.535C328.257 62.8619 328.749 63.0736 329.381 63.1702C330.069 63.2753 330.641 63.2166 331.097 62.9941C331.553 62.7668 331.813 62.4449 331.877 62.0284C331.928 61.6914 331.845 61.3889 331.627 61.1209C331.414 60.8537 331.059 60.6222 330.562 60.4265L328.798 59.7473C327.827 59.3641 327.138 58.8853 326.733 58.3108C326.332 57.737 326.19 57.0664 326.308 56.2988C326.405 55.6622 326.668 55.1324 327.097 54.7094C327.525 54.2863 328.074 53.9893 328.741 53.8184C329.41 53.6428 330.149 53.6169 330.959 53.7406C332.125 53.9188 333.003 54.3117 333.595 54.9195C334.188 55.5226 334.528 56.2619 334.614 57.1373Z"
        fill="white" />
      <path
        d="M321.44 58.8885L322.404 52.5768L324.511 52.8988L322.862 63.6826L320.798 63.3671L321.084 61.4996L320.971 61.4824C320.635 62.0202 320.164 62.4392 319.558 62.7393C318.957 63.0354 318.252 63.1216 317.442 62.9978C316.749 62.892 316.159 62.6461 315.672 62.2604C315.191 61.8706 314.844 61.3506 314.632 60.7003C314.425 60.0507 314.389 59.2813 314.525 58.392L315.573 51.5327L317.672 51.8536L316.663 58.4601C316.55 59.1949 316.665 59.8111 317.005 60.3086C317.346 60.8062 317.842 61.1047 318.492 61.2041C318.885 61.2642 319.291 61.2256 319.71 61.0884C320.133 60.9519 320.504 60.7044 320.822 60.3459C321.145 59.9882 321.351 59.5023 321.44 58.8885Z"
        fill="white" />
      <path
        d="M307.612 61.5745C306.568 61.4149 305.706 61.0412 305.025 60.4533C304.349 59.8615 303.873 59.1159 303.599 58.2165C303.325 57.3172 303.27 56.3269 303.435 55.2457C303.603 54.1505 303.956 53.2155 304.496 52.4406C305.037 51.6611 305.718 51.0922 306.539 50.7339C307.36 50.3756 308.278 50.2741 309.294 50.4293C310.113 50.5545 310.82 50.8182 311.415 51.2205C312.01 51.618 312.463 52.1183 312.773 52.7214C313.088 53.3251 313.228 53.9954 313.192 54.7324L311.148 54.4201C311.113 53.8974 310.923 53.4228 310.576 52.9962C310.234 52.5703 309.728 52.3062 309.059 52.2039C308.474 52.1145 307.938 52.1906 307.45 52.4323C306.969 52.67 306.563 53.0534 306.233 53.5826C305.904 54.107 305.68 54.7531 305.563 55.5207C305.443 56.307 305.458 57.0039 305.61 57.6114C305.761 58.2189 306.031 58.7127 306.418 59.0928C306.81 59.4737 307.303 59.7095 307.898 59.8004C308.296 59.8612 308.667 59.8437 309.012 59.748C309.363 59.6483 309.669 59.4772 309.931 59.2346C310.198 58.9928 310.406 58.6845 310.554 58.3096L312.597 58.6218C312.416 59.3078 312.093 59.8956 311.631 60.3853C311.168 60.875 310.594 61.2279 309.91 61.4442C309.23 61.6613 308.464 61.7047 307.612 61.5745Z"
        fill="white" />
      <path
        d="M302.226 52.187L300.271 52.2332C300.229 51.9776 300.138 51.7266 299.999 51.4802C299.864 51.2344 299.662 51.0192 299.393 50.8344C299.124 50.6496 298.772 50.524 298.337 50.4575C297.743 50.3666 297.226 50.4242 296.788 50.6302C296.35 50.8315 296.099 51.1404 296.035 51.557C295.98 51.9173 296.069 52.2279 296.302 52.4887C296.535 52.7494 296.939 52.9955 297.511 53.2267L299.164 53.8817C300.122 54.2627 300.807 54.7291 301.221 55.2809C301.635 55.8327 301.783 56.4901 301.667 57.253C301.568 57.8989 301.293 58.446 300.841 58.8943C300.395 59.3386 299.818 59.6527 299.109 59.8366C298.406 60.0213 297.619 60.0471 296.748 59.914C295.54 59.7294 294.595 59.3214 293.91 58.69C293.227 58.0538 292.871 57.2451 292.844 56.2638L294.92 56.265C294.966 56.8132 295.165 57.2531 295.516 57.5847C295.869 57.9116 296.361 58.1233 296.993 58.2199C297.681 58.325 298.252 58.2663 298.708 58.0438C299.164 57.8165 299.424 57.4946 299.488 57.0781C299.539 56.7411 299.456 56.4386 299.239 56.1706C299.026 55.9033 298.671 55.6719 298.174 55.4762L296.409 54.797C295.438 54.4138 294.75 53.935 294.344 53.3605C293.943 52.7867 293.801 52.116 293.919 51.3484C294.016 50.7119 294.279 50.1821 294.708 49.7591C295.136 49.336 295.685 49.039 296.353 48.8681C297.021 48.6925 297.761 48.6666 298.57 48.7903C299.736 48.9685 300.615 49.3614 301.207 49.9692C301.799 50.5723 302.139 51.3116 302.226 52.187Z"
        fill="white" />
      <path
        d="M288.371 58.4109L290.019 47.6271L292.118 47.9479L290.47 58.7318L288.371 58.4109ZM291.334 46.1252C290.969 46.0694 290.674 45.8997 290.449 45.6163C290.229 45.3289 290.146 45.0143 290.198 44.6727C290.251 44.3263 290.424 44.0511 290.719 43.8471C291.019 43.6391 291.352 43.563 291.717 43.6188C292.082 43.6746 292.374 43.8462 292.594 44.1336C292.819 44.417 292.905 44.7319 292.852 45.0783C292.799 45.42 292.623 45.6948 292.323 45.9028C292.029 46.1068 291.699 46.181 291.334 46.1252Z"
        fill="white" />
      <path
        d="M279.322 57.0278L274.667 56.3163L276.865 41.9379L281.667 42.6718C283.076 42.8872 284.242 43.3599 285.165 44.0902C286.088 44.8157 286.737 45.7555 287.112 46.9096C287.492 48.0598 287.567 49.3814 287.339 50.8744C287.11 52.3722 286.64 53.6175 285.928 54.6103C285.22 55.6038 284.307 56.3121 283.189 56.7351C282.071 57.1534 280.782 57.251 279.322 57.0278ZM277.126 54.7523L279.492 55.1139C280.587 55.2813 281.529 55.2145 282.318 54.9135C283.107 54.6079 283.742 54.0894 284.222 53.3582C284.704 52.6222 285.031 51.6856 285.205 50.5482C285.377 49.4202 285.343 48.4355 285.103 47.5941C284.868 46.7534 284.428 46.0755 283.783 45.5603C283.139 45.045 282.292 44.7073 281.244 44.5471L278.744 44.165L277.126 54.7523Z"
        fill="white" />
      <path d="M244.223 53.0795L263.993 56.1012L267.015 36.3308L247.244 33.3091L244.223 53.0795Z"
        fill="url(#pattern5_2001_2)" />
    </g>
    <rect x="236.356" y="23.2957" width="189.5" height="36.5066" rx="5"
      transform="rotate(8.68992 236.356 23.2957)" stroke="white" stroke-width="2" />
    <rect x="207.303" y="183.848" width="215.083" height="36.5066" rx="5"
      transform="rotate(-3.67351 207.303 183.848)" fill="#D24646" />
    <rect x="207.303" y="183.848" width="215.083" height="36.5066" rx="5"
      transform="rotate(-3.67351 207.303 183.848)" stroke="white" stroke-width="2" />
    <path
      d="M411.507 187.921L409.609 188.385C409.512 188.144 409.37 187.918 409.181 187.708C408.996 187.496 408.753 187.329 408.451 187.206C408.149 187.083 407.778 187.036 407.339 187.064C406.739 187.103 406.247 187.27 405.862 187.565C405.478 187.855 405.299 188.211 405.326 188.631C405.349 188.995 405.503 189.279 405.786 189.484C406.07 189.689 406.516 189.843 407.125 189.946L408.88 190.232C409.897 190.399 410.666 190.708 411.189 191.158C411.711 191.609 411.997 192.219 412.046 192.989C412.088 193.641 411.937 194.235 411.591 194.769C411.25 195.299 410.754 195.729 410.101 196.061C409.454 196.392 408.69 196.585 407.811 196.642C406.592 196.72 405.581 196.524 404.777 196.054C403.974 195.579 403.453 194.865 403.217 193.912L405.245 193.469C405.407 193.994 405.695 194.382 406.109 194.63C406.524 194.874 407.05 194.976 407.688 194.935C408.382 194.89 408.928 194.71 409.325 194.395C409.722 194.076 409.907 193.706 409.88 193.285C409.859 192.945 409.713 192.667 409.443 192.452C409.177 192.236 408.781 192.086 408.254 192.002L406.385 191.716C405.354 191.55 404.579 191.229 404.06 190.755C403.546 190.28 403.264 189.656 403.214 188.881C403.173 188.238 403.316 187.664 403.644 187.159C403.972 186.654 404.444 186.247 405.06 185.937C405.676 185.622 406.392 185.438 407.21 185.386C408.386 185.31 409.329 185.506 410.037 185.973C410.745 186.435 411.235 187.085 411.507 187.921Z"
      fill="white" />
    <path
      d="M397.269 197.319C396.196 197.388 395.258 197.218 394.454 196.809C393.654 196.395 393.017 195.784 392.542 194.975C392.073 194.16 391.801 193.188 391.729 192.059C391.657 190.944 391.802 189.948 392.163 189.071C392.529 188.193 393.073 187.492 393.793 186.966C394.519 186.44 395.387 186.145 396.398 186.08C397.012 186.041 397.614 186.104 398.204 186.27C398.793 186.436 399.331 186.722 399.817 187.127C400.304 187.533 400.701 188.074 401.01 188.752C401.319 189.425 401.506 190.255 401.569 191.242L401.617 191.994L392.963 192.549L392.861 190.962L399.439 190.539C399.403 189.982 399.258 189.495 399.003 189.08C398.749 188.66 398.408 188.338 397.98 188.114C397.558 187.889 397.073 187.795 396.525 187.83C395.929 187.868 395.419 188.048 394.994 188.369C394.573 188.686 394.257 189.086 394.046 189.569C393.839 190.047 393.753 190.558 393.788 191.101L393.868 192.342C393.915 193.069 394.082 193.68 394.37 194.174C394.662 194.668 395.049 195.034 395.529 195.274C396.009 195.509 396.559 195.606 397.178 195.567C397.58 195.541 397.942 195.461 398.266 195.326C398.589 195.187 398.863 194.993 399.09 194.746C399.316 194.499 399.482 194.202 399.587 193.853L401.616 194.086C401.494 194.687 401.239 195.223 400.851 195.694C400.468 196.16 399.973 196.535 399.365 196.821C398.762 197.102 398.063 197.268 397.269 197.319Z"
      fill="white" />
    <path
      d="M375.323 198.507L374.624 187.62L376.658 187.49L376.772 189.262L376.906 189.253C377.094 188.638 377.435 188.147 377.929 187.778C378.422 187.405 379.028 187.195 379.746 187.149C380.474 187.102 381.094 187.233 381.607 187.542C382.125 187.85 382.522 188.295 382.796 188.875L382.909 188.868C383.132 188.27 383.516 187.78 384.061 187.399C384.605 187.013 385.27 186.795 386.054 186.744C387.042 186.681 387.867 186.939 388.531 187.518C389.199 188.096 389.573 189.009 389.653 190.257L390.122 197.557L388.002 197.693L387.546 190.591C387.499 189.854 387.264 189.333 386.841 189.028C386.418 188.723 385.928 188.588 385.371 188.624C384.681 188.669 384.158 188.916 383.803 189.365C383.447 189.811 383.29 190.364 383.333 191.025L383.778 197.964L381.666 198.1L381.201 190.863C381.164 190.273 380.949 189.81 380.557 189.474C380.166 189.139 379.674 188.99 379.084 189.028C378.682 189.054 378.318 189.184 377.991 189.418C377.669 189.648 377.416 189.956 377.232 190.342C377.053 190.729 376.979 191.168 377.011 191.659L377.442 198.371L375.323 198.507Z"
      fill="white" />
    <path
      d="M367.542 199.249C366.852 199.293 366.22 199.205 365.646 198.986C365.072 198.762 364.606 198.415 364.249 197.944C363.896 197.473 363.696 196.881 363.651 196.168C363.611 195.553 363.697 195.04 363.908 194.628C364.118 194.216 364.417 193.881 364.804 193.624C365.191 193.367 365.628 193.163 366.117 193.013C366.605 192.863 367.105 192.741 367.616 192.646C368.264 192.529 368.789 192.434 369.192 192.36C369.595 192.282 369.885 192.181 370.062 192.055C370.239 191.93 370.32 191.74 370.303 191.485L370.3 191.435C370.26 190.816 370.055 190.348 369.683 190.03C369.316 189.712 368.79 189.575 368.105 189.619C367.392 189.665 366.84 189.859 366.449 190.202C366.063 190.54 365.804 190.905 365.672 191.298L363.652 190.972C363.845 190.296 364.156 189.74 364.584 189.304C365.015 188.864 365.523 188.532 366.107 188.31C366.69 188.082 367.31 187.948 367.967 187.905C368.401 187.878 368.866 187.9 369.359 187.973C369.857 188.04 370.327 188.195 370.769 188.437C371.217 188.679 371.593 189.041 371.9 189.525C372.206 190.003 372.384 190.639 372.435 191.433L372.899 198.663L370.829 198.796L370.734 197.307L370.649 197.313C370.529 197.595 370.341 197.878 370.084 198.16C369.827 198.442 369.489 198.685 369.07 198.887C368.652 199.09 368.142 199.21 367.542 199.249ZM367.894 197.518C368.48 197.48 368.973 197.332 369.374 197.074C369.78 196.816 370.079 196.493 370.272 196.106C370.47 195.713 370.555 195.302 370.528 194.872L370.438 193.469C370.367 193.549 370.225 193.63 370.012 193.71C369.803 193.785 369.563 193.855 369.292 193.92C369.021 193.98 368.757 194.037 368.499 194.091C368.241 194.141 368.026 194.183 367.853 194.218C367.445 194.297 367.075 194.408 366.742 194.553C366.415 194.697 366.157 194.892 365.969 195.136C365.785 195.376 365.705 195.685 365.729 196.063C365.763 196.587 365.982 196.972 366.387 197.216C366.791 197.456 367.293 197.556 367.894 197.518Z"
      fill="white" />
    <path
      d="M357.28 203.992C356.416 204.048 355.664 203.982 355.026 203.796C354.392 203.609 353.867 203.341 353.451 202.993C353.035 202.645 352.716 202.255 352.494 201.823L354.267 200.955C354.408 201.155 354.592 201.363 354.82 201.581C355.052 201.804 355.358 201.986 355.737 202.127C356.121 202.269 356.606 202.321 357.192 202.283C357.995 202.231 358.647 201.993 359.146 201.567C359.645 201.146 359.868 200.51 359.813 199.659L359.676 197.519L359.541 197.528C359.429 197.767 359.261 198.037 359.038 198.336C358.82 198.634 358.51 198.901 358.107 199.135C357.705 199.37 357.17 199.509 356.504 199.552C355.644 199.607 354.856 199.456 354.141 199.098C353.43 198.736 352.848 198.173 352.395 197.41C351.948 196.641 351.686 195.678 351.612 194.521C351.538 193.363 351.67 192.358 352.009 191.506C352.353 190.654 352.856 189.986 353.518 189.502C354.179 189.014 354.947 188.741 355.821 188.685C356.496 188.642 357.049 188.72 357.48 188.92C357.91 189.116 358.25 189.355 358.501 189.638C358.756 189.92 358.955 190.171 359.097 190.389L359.253 190.379L359.14 188.614L361.216 188.481L361.931 199.609C361.991 200.544 361.823 201.326 361.427 201.954C361.031 202.582 360.471 203.064 359.747 203.4C359.029 203.736 358.206 203.933 357.28 203.992ZM356.859 197.764C357.469 197.725 357.975 197.55 358.377 197.239C358.784 196.924 359.079 196.492 359.262 195.944C359.449 195.391 359.519 194.739 359.471 193.988C359.424 193.255 359.273 192.617 359.02 192.074C358.767 191.53 358.42 191.116 357.98 190.831C357.539 190.542 357.009 190.417 356.39 190.456C355.752 190.497 355.231 190.697 354.827 191.055C354.423 191.408 354.13 191.873 353.949 192.449C353.772 193.025 353.706 193.66 353.751 194.355C353.797 195.069 353.945 195.688 354.197 196.212C354.449 196.737 354.798 197.137 355.242 197.412C355.692 197.687 356.231 197.804 356.859 197.764Z"
      fill="white" />
    <path
      d="M339.551 201.017C338.672 201.074 337.873 200.9 337.154 200.495C336.44 200.085 335.86 199.475 335.414 198.664C334.973 197.848 334.714 196.851 334.639 195.675C334.563 194.498 334.695 193.479 335.033 192.618C335.376 191.756 335.879 191.081 336.54 190.592C337.201 190.104 337.969 189.831 338.843 189.775C339.519 189.732 340.07 189.81 340.495 190.011C340.925 190.206 341.263 190.445 341.509 190.729C341.76 191.011 341.956 191.262 342.098 191.481L342.226 191.473L341.88 186.079L343.999 185.943L344.931 200.458L342.861 200.591L342.752 198.897L342.575 198.909C342.463 199.148 342.295 199.425 342.073 199.738C341.856 200.051 341.547 200.332 341.145 200.58C340.744 200.829 340.212 200.975 339.551 201.017ZM339.902 199.18C340.512 199.141 341.017 198.947 341.417 198.599C341.821 198.245 342.113 197.773 342.294 197.183C342.479 196.592 342.547 195.914 342.498 195.149C342.449 194.393 342.298 193.738 342.044 193.185C341.79 192.632 341.443 192.211 341.002 191.921C340.561 191.632 340.031 191.507 339.412 191.546C338.775 191.587 338.254 191.787 337.85 192.145C337.446 192.503 337.153 192.975 336.973 193.561C336.797 194.146 336.732 194.798 336.778 195.516C336.825 196.244 336.975 196.891 337.23 197.458C337.485 198.026 337.835 198.466 338.283 198.779C338.734 199.086 339.274 199.22 339.902 199.18Z"
      fill="white" />
    <path
      d="M328.591 201.507L327.892 190.621L329.94 190.489L330.051 192.219L330.165 192.211C330.325 191.613 330.645 191.13 331.125 190.762C331.609 190.389 332.169 190.182 332.807 190.141C332.94 190.133 333.096 190.128 333.276 190.126C333.461 190.123 333.606 190.126 333.711 190.133L333.841 192.16C333.754 192.142 333.601 192.126 333.382 192.112C333.163 192.092 332.944 192.09 332.727 192.104C332.226 192.136 331.786 192.271 331.408 192.509C331.034 192.741 330.745 193.052 330.542 193.44C330.339 193.823 330.253 194.251 330.283 194.723L330.71 201.371L328.591 201.507Z"
      fill="white" />
    <path
      d="M320.81 202.249C320.12 202.293 319.488 202.206 318.914 201.986C318.34 201.762 317.874 201.415 317.517 200.944C317.164 200.474 316.965 199.882 316.919 199.168C316.879 198.554 316.965 198.041 317.176 197.628C317.386 197.216 317.685 196.882 318.072 196.624C318.459 196.367 318.896 196.163 319.385 196.013C319.874 195.863 320.373 195.741 320.884 195.647C321.532 195.529 322.057 195.434 322.46 195.361C322.863 195.282 323.153 195.181 323.33 195.056C323.507 194.93 323.588 194.74 323.571 194.485L323.568 194.435C323.528 193.816 323.323 193.348 322.951 193.03C322.584 192.712 322.058 192.575 321.373 192.619C320.66 192.665 320.108 192.859 319.717 193.202C319.331 193.54 319.072 193.906 318.94 194.298L316.92 193.973C317.113 193.296 317.424 192.74 317.852 192.304C318.284 191.864 318.791 191.532 319.375 191.31C319.958 191.083 320.578 190.948 321.235 190.906C321.67 190.878 322.134 190.9 322.627 190.973C323.125 191.041 323.595 191.195 324.037 191.438C324.485 191.679 324.861 192.042 325.168 192.525C325.474 193.004 325.652 193.64 325.703 194.434L326.167 201.663L324.098 201.796L324.002 200.307L323.917 200.313C323.798 200.596 323.609 200.878 323.352 201.16C323.095 201.443 322.757 201.685 322.338 201.887C321.92 202.09 321.41 202.21 320.81 202.249ZM321.162 200.518C321.748 200.481 322.241 200.333 322.642 200.074C323.048 199.816 323.347 199.493 323.541 199.106C323.738 198.714 323.823 198.302 323.796 197.872L323.706 196.469C323.635 196.55 323.493 196.63 323.28 196.71C323.071 196.785 322.831 196.855 322.56 196.92C322.289 196.98 322.025 197.037 321.767 197.092C321.509 197.141 321.294 197.184 321.121 197.219C320.713 197.297 320.343 197.409 320.011 197.553C319.683 197.698 319.425 197.892 319.237 198.137C319.053 198.376 318.973 198.685 318.997 199.063C319.031 199.588 319.25 199.972 319.655 200.216C320.059 200.456 320.562 200.557 321.162 200.518Z"
      fill="white" />
    <path
      d="M310.6 202.883C309.579 202.949 308.673 202.772 307.882 202.353C307.092 201.934 306.459 201.318 305.984 200.503C305.51 199.689 305.237 198.72 305.164 197.595C305.092 196.466 305.239 195.465 305.605 194.592C305.971 193.72 306.52 193.025 307.25 192.508C307.981 191.992 308.857 191.7 309.877 191.635C310.898 191.569 311.804 191.746 312.594 192.165C313.385 192.584 314.018 193.203 314.493 194.022C314.968 194.84 315.241 195.815 315.314 196.944C315.386 198.068 315.239 199.065 314.872 199.933C314.506 200.801 313.957 201.493 313.227 202.01C312.496 202.526 311.62 202.818 310.6 202.883ZM310.492 201.104C311.154 201.061 311.691 200.851 312.103 200.474C312.515 200.096 312.807 199.61 312.977 199.015C313.153 198.421 313.218 197.773 313.173 197.074C313.128 196.38 312.981 195.749 312.731 195.181C312.486 194.608 312.134 194.159 311.677 193.832C311.219 193.506 310.66 193.364 309.998 193.406C309.332 193.449 308.791 193.662 308.374 194.044C307.962 194.427 307.668 194.918 307.493 195.517C307.323 196.112 307.26 196.756 307.304 197.451C307.349 198.15 307.494 198.784 307.74 199.352C307.99 199.919 308.343 200.364 308.8 200.686C309.262 201.007 309.826 201.146 310.492 201.104Z"
      fill="white" />
    <path
      d="M294.075 203.723L293.143 189.208L295.262 189.072L295.609 194.465L295.736 194.457C295.845 194.223 296.005 193.949 296.217 193.636C296.43 193.324 296.734 193.043 297.131 192.795C297.528 192.542 298.064 192.393 298.74 192.35C299.618 192.294 300.417 192.465 301.135 192.865C301.854 193.265 302.436 193.871 302.882 194.682C303.332 195.493 303.596 196.486 303.671 197.663C303.747 198.839 303.615 199.861 303.277 200.727C302.939 201.589 302.441 202.268 301.785 202.766C301.129 203.259 300.361 203.533 299.483 203.59C298.821 203.632 298.273 203.556 297.838 203.361C297.408 203.165 297.065 202.926 296.81 202.644C296.555 202.361 296.356 202.108 296.213 201.885L296.036 201.897L296.145 203.59L294.075 203.723ZM295.802 198.147C295.852 198.912 296.006 199.576 296.265 200.138C296.524 200.7 296.874 201.131 297.316 201.43C297.757 201.724 298.282 201.852 298.892 201.813C299.525 201.772 300.043 201.57 300.447 201.208C300.85 200.84 301.142 200.359 301.322 199.764C301.507 199.168 301.576 198.507 301.529 197.779C301.483 197.061 301.333 196.423 301.079 195.865C300.83 195.307 300.479 194.876 300.028 194.573C299.582 194.27 299.039 194.138 298.402 194.179C297.787 194.219 297.278 194.41 296.873 194.754C296.473 195.098 296.182 195.56 296.001 196.141C295.82 196.722 295.754 197.391 295.802 198.147Z"
      fill="white" />
    <path
      d="M279.718 208.744C279.402 208.765 279.112 208.757 278.848 208.722C278.586 208.691 278.388 208.652 278.257 208.603L278.656 206.834C279.05 206.913 279.398 206.936 279.7 206.902C280.001 206.869 280.261 206.738 280.479 206.511C280.701 206.283 280.887 205.922 281.035 205.429L281.251 204.689L276.56 193.916L278.828 193.771L282.128 202.042L282.241 202.035L284.456 193.409L286.731 193.263L283.036 205.891C282.865 206.471 282.631 206.968 282.335 207.381C282.039 207.798 281.676 208.121 281.244 208.348C280.813 208.575 280.304 208.707 279.718 208.744Z"
      fill="white" />
    <path
      d="M270.726 205.464C270.036 205.509 269.404 205.421 268.83 205.202C268.256 204.978 267.79 204.63 267.432 204.16C267.079 203.689 266.88 203.097 266.834 202.384C266.795 201.769 266.881 201.256 267.091 200.844C267.302 200.432 267.601 200.097 267.988 199.84C268.374 199.583 268.812 199.379 269.301 199.229C269.789 199.079 270.289 198.957 270.8 198.862C271.447 198.745 271.973 198.649 272.376 198.576C272.779 198.498 273.069 198.396 273.246 198.271C273.423 198.146 273.503 197.956 273.487 197.701L273.484 197.651C273.444 197.032 273.238 196.564 272.867 196.246C272.5 195.928 271.974 195.791 271.289 195.835C270.575 195.881 270.023 196.075 269.633 196.418C269.246 196.756 268.987 197.121 268.856 197.514L266.835 197.188C267.029 196.512 267.34 195.955 267.767 195.52C268.199 195.079 268.707 194.748 269.29 194.525C269.874 194.298 270.494 194.163 271.151 194.121C271.585 194.093 272.049 194.116 272.543 194.189C273.04 194.256 273.511 194.411 273.953 194.653C274.4 194.895 274.777 195.257 275.083 195.741C275.389 196.219 275.568 196.855 275.619 197.649L276.083 204.879L274.013 205.011L273.918 203.523L273.833 203.528C273.713 203.811 273.525 204.094 273.268 204.376C273.011 204.658 272.673 204.901 272.254 205.103C271.835 205.305 271.326 205.426 270.726 205.464ZM271.077 203.734C271.663 203.696 272.157 203.548 272.558 203.29C272.963 203.032 273.263 202.709 273.456 202.321C273.654 201.929 273.739 201.518 273.711 201.088L273.621 199.685C273.551 199.765 273.409 199.845 273.196 199.926C272.987 200.001 272.747 200.071 272.476 200.135C272.205 200.196 271.94 200.253 271.683 200.307C271.425 200.357 271.21 200.399 271.036 200.434C270.629 200.513 270.258 200.624 269.926 200.769C269.599 200.913 269.341 201.108 269.152 201.352C268.968 201.592 268.889 201.901 268.913 202.279C268.947 202.803 269.166 203.188 269.571 203.432C269.975 203.672 270.477 203.772 271.077 203.734Z"
      fill="white" />
    <path d="M264.158 191.069L265.09 205.584L262.971 205.72L262.039 191.205L264.158 191.069Z"
      fill="white" />
    <path
      d="M250.774 206.503L249.842 191.988L255.016 191.656C256.145 191.583 257.094 191.729 257.862 192.092C258.63 192.456 259.222 192.982 259.636 193.672C260.05 194.357 260.286 195.144 260.343 196.032C260.4 196.925 260.265 197.74 259.937 198.478C259.614 199.21 259.093 199.808 258.373 200.272C257.658 200.731 256.738 200.996 255.613 201.069L252.055 201.297L251.936 199.44L255.295 199.224C256.009 199.179 256.58 199.019 257.008 198.744C257.436 198.465 257.74 198.104 257.921 197.661C258.101 197.218 258.174 196.722 258.138 196.174C258.103 195.626 257.968 195.146 257.733 194.734C257.498 194.322 257.148 194.01 256.683 193.798C256.224 193.585 255.63 193.502 254.902 193.549L252.152 193.725L252.964 206.363L250.774 206.503Z"
      fill="white" />
    <path d="M220.342 209.86L240.301 208.579L239.02 188.62L219.061 189.901L220.342 209.86Z"
      fill="url(#pattern6_2001_2)" />
    <rect x="67.9181" y="166.238" width="108.938" height="36.5066" rx="5"
      transform="rotate(-4.90793 67.9181 166.238)" fill="#5446D2" />
    <rect x="67.9181" y="166.238" width="108.938" height="36.5066" rx="5"
      transform="rotate(-4.90793 67.9181 166.238)" stroke="white" stroke-width="2" />
    <path
      d="M153.957 188.672C153.094 188.746 152.341 188.697 151.699 188.524C151.061 188.35 150.531 188.094 150.107 187.755C149.684 187.416 149.356 187.033 149.125 186.606L150.879 185.7C151.024 185.897 151.213 186.101 151.445 186.314C151.682 186.531 151.992 186.707 152.374 186.84C152.761 186.973 153.247 187.015 153.832 186.965C154.634 186.896 155.28 186.643 155.77 186.207C156.26 185.775 156.469 185.134 156.396 184.285L156.213 182.148L156.078 182.16C155.971 182.402 155.809 182.675 155.592 182.978C155.381 183.282 155.076 183.555 154.679 183.798C154.282 184.041 153.751 184.192 153.085 184.249C152.227 184.322 151.436 184.188 150.713 183.847C149.994 183.5 149.4 182.949 148.931 182.196C148.467 181.437 148.185 180.48 148.086 179.325C147.987 178.169 148.098 177.161 148.418 176.302C148.744 175.443 149.232 174.764 149.883 174.266C150.534 173.763 151.295 173.475 152.168 173.4C152.843 173.342 153.397 173.408 153.832 173.599C154.266 173.785 154.611 174.017 154.868 174.294C155.129 174.571 155.334 174.817 155.48 175.033L155.636 175.019L155.485 173.257L157.558 173.079L158.512 184.189C158.592 185.123 158.441 185.908 158.059 186.545C157.676 187.181 157.127 187.675 156.411 188.026C155.7 188.377 154.882 188.592 153.957 188.672ZM153.402 182.454C154.01 182.401 154.512 182.216 154.908 181.897C155.308 181.572 155.593 181.134 155.764 180.583C155.94 180.026 155.996 179.372 155.931 178.622C155.868 177.891 155.705 177.257 155.44 176.719C155.175 176.181 154.819 175.774 154.373 175.499C153.926 175.219 153.393 175.105 152.775 175.158C152.138 175.213 151.622 175.423 151.226 175.79C150.829 176.152 150.546 176.623 150.377 177.203C150.213 177.783 150.161 178.419 150.221 179.113C150.282 179.825 150.444 180.441 150.707 180.96C150.97 181.479 151.327 181.871 151.778 182.137C152.233 182.402 152.774 182.508 153.402 182.454Z"
      fill="white" />
    <path
      d="M139.081 179.114L139.635 185.568L137.52 185.749L136.586 174.88L138.617 174.706L138.769 176.475L138.904 176.463C139.104 175.866 139.456 175.37 139.959 174.976C140.467 174.58 141.129 174.348 141.945 174.278C142.686 174.214 143.348 174.314 143.931 174.577C144.514 174.836 144.985 175.257 145.344 175.839C145.703 176.421 145.921 177.161 145.998 178.057L146.591 184.97L144.476 185.152L143.904 178.493C143.836 177.705 143.578 177.107 143.13 176.699C142.681 176.286 142.098 176.111 141.381 176.172C140.89 176.214 140.463 176.358 140.099 176.603C139.74 176.848 139.467 177.185 139.28 177.614C139.098 178.039 139.032 178.539 139.081 179.114Z"
      fill="white" />
    <path
      d="M132.956 186.141L132.023 175.272L134.139 175.09L135.072 185.96L132.956 186.141ZM132.947 173.503C132.579 173.535 132.253 173.439 131.967 173.217C131.686 172.989 131.531 172.703 131.502 172.359C131.472 172.009 131.576 171.701 131.814 171.434C132.057 171.161 132.362 171.009 132.73 170.977C133.098 170.945 133.423 171.044 133.704 171.271C133.989 171.494 134.146 171.78 134.176 172.129C134.206 172.473 134.099 172.782 133.857 173.055C133.618 173.322 133.315 173.472 132.947 173.503Z"
      fill="white" />
    <path
      d="M127.687 175.83C127.554 175.166 127.198 174.674 126.619 174.353C126.04 174.027 125.335 173.9 124.505 173.972C123.911 174.023 123.405 174.161 122.987 174.387C122.569 174.608 122.253 174.892 122.04 175.238C121.832 175.579 121.746 175.955 121.781 176.365C121.81 176.71 121.916 177 122.098 177.236C122.285 177.472 122.517 177.664 122.796 177.811C123.079 177.953 123.379 178.067 123.695 178.154C124.011 178.236 124.314 178.301 124.603 178.347L126.05 178.594C126.522 178.667 127.009 178.78 127.511 178.931C128.014 179.083 128.486 179.299 128.929 179.58C129.371 179.86 129.739 180.223 130.034 180.668C130.334 181.113 130.512 181.661 130.568 182.312C130.638 183.132 130.488 183.88 130.118 184.553C129.753 185.226 129.186 185.781 128.415 186.217C127.649 186.654 126.701 186.921 125.568 187.018C124.483 187.111 123.53 187.02 122.708 186.743C121.886 186.467 121.223 186.032 120.721 185.438C120.218 184.84 119.905 184.106 119.783 183.238L121.977 183.049C122.064 183.569 122.272 183.991 122.599 184.315C122.93 184.633 123.337 184.857 123.819 184.987C124.304 185.112 124.828 185.15 125.39 185.102C126.008 185.048 126.549 184.905 127.013 184.67C127.482 184.43 127.841 184.124 128.089 183.751C128.337 183.373 128.441 182.948 128.4 182.476C128.364 182.047 128.211 181.706 127.942 181.454C127.678 181.201 127.331 181.002 126.9 180.859C126.474 180.715 125.996 180.597 125.465 180.504L123.713 180.184C122.525 179.968 121.565 179.582 120.833 179.027C120.106 178.472 119.699 177.689 119.612 176.68C119.541 175.845 119.704 175.097 120.104 174.435C120.503 173.773 121.075 173.237 121.819 172.826C122.563 172.411 123.421 172.161 124.392 172.078C125.374 171.994 126.254 172.092 127.034 172.372C127.818 172.651 128.453 173.074 128.939 173.641C129.425 174.203 129.71 174.872 129.796 175.649L127.687 175.83Z"
      fill="white" />
    <path d="M90.3484 191.205L110.275 189.494L108.564 169.567L88.6373 171.278L90.3484 191.205Z"
      fill="url(#pattern7_2001_2)" />
  </g>
  <defs>
    <pattern id="pattern0_2001_2" patternContentUnits="objectBoundingBox" width="1" height="1">
      <use xlink:href="#image0_2001_2" transform="matrix(0.000782963 0 0 0.00111235 -0.00109615 0)" />
    </pattern>
    <pattern id="pattern1_2001_2" patternContentUnits="objectBoundingBox" width="1" height="1">
      <use xlink:href="#image1_2001_2" transform="scale(0.00078125 0.00104167)" />
    </pattern>
    <pattern id="pattern2_2001_2" patternContentUnits="objectBoundingBox" width="1" height="1">
      <use xlink:href="#image2_2001_2" transform="matrix(0.000321227 0 0 0.00044405 -0.142455 0)" />
    </pattern>
    <pattern id="pattern3_2001_2" patternContentUnits="objectBoundingBox" width="1" height="1">
      <use xlink:href="#image3_2001_2" transform="matrix(0.00078125 0 0 0.00104167 0 -0.00208333)" />
    </pattern>
    <pattern id="pattern4_2001_2" patternContentUnits="objectBoundingBox" width="1" height="1">
      <use xlink:href="#image4_2001_2" transform="scale(0.0055) rotate(2.46) translate(10 10)" />
    </pattern>
    <pattern id="pattern5_2001_2" patternContentUnits="objectBoundingBox" width="1" height="1">
      <use xlink:href="#image4_2001_2" transform="scale(0.0055) rotate(8.69) translate(25 -5)" />
    </pattern>
    <pattern id="pattern6_2001_2" patternContentUnits="objectBoundingBox" width="1" height="1">
      <use xlink:href="#image4_2001_2" transform="scale(0.0055) rotate(-3.67) translate(0 20)" />
    </pattern>
    <pattern id="pattern7_2001_2" patternContentUnits="objectBoundingBox" width="1" height="1">
      <use xlink:href="#image4_2001_2" transform="scale(0.0055) rotate(-4.91) translate(0 20)" />
    </pattern>
    <clipPath id="clip0_2001_2">
      <rect width="423" height="336" fill="white" />
    </clipPath>
    <clipPath id="clip1_2001_2">
      <rect x="237.193" y="24.4353" width="187.5" height="34.5066" rx="4"
        transform="rotate(8.68992 237.193 24.4353)" fill="white" />
    </clipPath>
    <image id="image0_2001_2" width="1280" height="899" preserveAspectRatio="none"
      href="/photo-tea.jpg" />
    <image id="image1_2001_2" width="1280" height="960" preserveAspectRatio="none"
      href="/photo-tea-table.jpg" />
    <image id="image2_2001_2" width="4000" height="2252" preserveAspectRatio="none"
      href="/photo-guitar.jpg" />
    <image id="image3_2001_2" width="1280" height="964" preserveAspectRatio="none"
      href="/photo-shark.jpg" />
    <image id="image4_2001_2" width="160" height="160" preserveAspectRatio="none" href="/tea.png" />
  </defs>
</svg>
